<svg xmlns="http://www.w3.org/2000/svg" version="1.1" xmlns:xlink="http://www.w3.org/1999/xlink" xmlns:svgjs="http://svgjs.dev/svgjs" width="100%" height="100%" viewBox="0 0 1000 600"><rect width="1000" height="600" x="0" y="0" fill="#ffffff"/><g><rect width="333.3333333333333" height="333.3333333333333" rx="13.333333333333334" ry="13.333333333333334" y="334.66325329405424" fill="#99ddff" transform="matrix(0.4000754797258709,0,0,0.40007547972587093,0,99.43018007736784)" x="312.44097900390625"/><path d="MNaN 501.3299106641746 " fill="white" transform="matrix(0.4000754797258709,0,0,0.40007547972587093,0,99.43018007736784)"/><path d="M746.5962885863603 559.0779815148917L807.7326044423755 559.0779815148917L807.7326044423755 573.9921650538229L729.107632888923 573.9921650538229L729.107632888923 442.10225228990214L746.5962885863603 442.10225228990214L746.5962885863603 559.0779815148917ZM914.2624868633122 524.5741362641106L914.2624868633122 524.5741362641106Q914.2624868633122 536.2924233304136 910.9482238546608 545.7617462122746Q907.6635524800153 555.2310690941357 901.6860424108405 562.0667365494792Q895.7381239756716 568.8728123708167 887.4228748200374 572.6013582555495Q879.1076256644031 576.3299041402823 869.3127948084781 576.3299041402823L869.3127948084781 576.3299041402823Q859.7251053905937 576.3299041402823 851.5282227709829 572.6013582555495Q843.301748517366 568.8728123708167 837.3538300821971 562.0667365494792Q831.3763200130223 555.2310690941357 828.0916486383768 545.7617462122746Q824.7773856297254 536.2924233304136 824.7773856297254 524.5741362641106L824.7773856297254 524.5741362641106Q824.7773856297254 512.8558491978075 828.0916486383768 503.2681597799232Q831.3763200130223 493.68047036203893 837.3538300821971 486.96316944271877Q843.301748517366 480.2458685233986 851.5282227709829 476.5173226386658Q859.7251053905937 472.788776753933 869.3127948084781 472.788776753933L869.3127948084781 472.788776753933Q879.1076256644031 472.788776753933 887.4228748200374 476.5173226386658Q895.7381239756716 480.2458685233986 901.6860424108405 486.96316944271877Q907.6635524800153 493.68047036203893 910.9482238546608 503.2681597799232Q914.2624868633122 512.8558491978075 914.2624868633122 524.5741362641106ZM896.152406851753 524.5741362641106L896.152406851753 524.5741362641106Q896.152406851753 507.7364965148014 888.9024565203281 498.03044056089385Q881.6525061889033 488.3539762409921 869.3127948084781 488.3539762409921L869.3127948084781 488.3539762409921Q857.1506332320878 488.3539762409921 850.0190494366863 498.03044056089385Q842.8874656412846 507.7364965148014 842.8874656412846 524.5741362641106L842.8874656412846 524.5741362641106Q842.8874656412846 541.1750429413732 850.0190494366863 550.8810988952807Q857.1506332320878 560.5575632151825 869.3127948084781 560.5575632151825L869.3127948084781 560.5575632151825Q881.6525061889033 560.5575632151825 888.9024565203281 550.8810988952807Q896.152406851753 541.1750429413732 896.152406851753 524.5741362641106ZM959.6560534282335 559.0779815148917L1020.7923692842489 559.0779815148917L1020.7923692842489 573.9921650538229L942.1673977307964 573.9921650538229L942.1673977307964 442.10225228990214L959.6560534282335 442.10225228990214L959.6560534282335 559.0779815148917ZM1185.9136870367006 440.82981202765205L1185.9136870367006 440.82981202765205Q1197.6319741030038 440.82981202765205 1206.4798726707427 443.8185670622394Q1215.3277712384815 446.80732209682685 1221.186914771633 452.2225911198911Q1227.0460583047845 457.6674517769612 1229.9164468033487 465.12454354642676Q1232.7868353019128 472.5816353158923 1232.7868353019128 481.7254502236894L1232.7868353019128 481.7254502236894Q1232.7868353019128 502.41000239375455 1220.6542653595284 513.5956400479529Q1208.4921037831382 524.7812777021513 1184.1973722643634 524.7812777021513L1184.1973722643634 524.7812777021513L1168.8689058493508 524.7812777021513L1168.8689058493508 573.9921650538229L1151.4098417859195 573.9921650538229L1151.4098417859195 444.02570850028013Q1155.2271625726698 443.16755111411146 1159.8138658435712 442.54612679998934Q1164.4005691144728 441.89511085186143 1168.9872723853741 441.48082797577996Q1173.5443840222697 441.03695346569276 1177.9239458551306 440.9481785636753Q1182.3035076879912 440.82981202765205 1185.9136870367006 440.82981202765205ZM1187.1861272989509 455.9511370046239L1187.1861272989509 455.9511370046239Q1181.6524917398633 455.9511370046239 1176.5331390568572 456.06950354064713Q1171.413786373851 456.1582784426646 1168.8689058493508 456.6021529527518L1168.8689058493508 456.6021529527518L1168.8689058493508 509.86709416322014L1183.3688065122005 509.86709416322014Q1199.348288875341 509.86709416322014 1207.1012969848648 503.475301217964Q1214.8838967283943 497.0835082727078 1214.8838967283943 482.37646617181736L1214.8838967283943 482.37646617181736Q1214.8838967283943 455.9511370046239 1187.1861272989509 455.9511370046239ZM1340.3820165470588 524.5741362641106L1340.3820165470588 524.5741362641106Q1340.3820165470588 536.2924233304136 1337.0677535384075 545.7617462122746Q1333.783082163762 555.2310690941357 1327.8055720945872 562.0667365494792Q1321.8576536594182 568.8728123708167 1313.542404503784 572.6013582555495Q1305.2271553481498 576.3299041402823 1295.4323244922248 576.3299041402823L1295.4323244922248 576.3299041402823Q1285.8446350743404 576.3299041402823 1277.6477524547295 572.6013582555495Q1269.4212782011127 568.8728123708167 1263.4733597659438 562.0667365494792Q1257.495849696769 555.2310690941357 1254.2111783221235 545.7617462122746Q1250.8969153134722 536.2924233304136 1250.8969153134722 524.5741362641106L1250.8969153134722 524.5741362641106Q1250.8969153134722 512.8558491978075 1254.2111783221235 503.2681597799232Q1257.495849696769 493.68047036203893 1263.4733597659438 486.96316944271877Q1269.4212782011127 480.2458685233986 1277.6477524547295 476.5173226386658Q1285.8446350743404 472.788776753933 1295.4323244922248 472.788776753933L1295.4323244922248 472.788776753933Q1305.2271553481498 472.788776753933 1313.542404503784 476.5173226386658Q1321.8576536594182 480.2458685233986 1327.8055720945872 486.96316944271877Q1333.783082163762 493.68047036203893 1337.0677535384075 503.2681597799232Q1340.3820165470588 512.8558491978075 1340.3820165470588 524.5741362641106ZM1322.2719365354997 524.5741362641106L1322.2719365354997 524.5741362641106Q1322.2719365354997 507.7364965148014 1315.021986204075 498.03044056089385Q1307.77203587265 488.3539762409921 1295.4323244922248 488.3539762409921L1295.4323244922248 488.3539762409921Q1283.2701629158346 488.3539762409921 1276.138579120433 498.03044056089385Q1269.0069953250313 507.7364965148014 1269.0069953250313 524.5741362641106L1269.0069953250313 524.5741362641106Q1269.0069953250313 541.1750429413732 1276.138579120433 550.8810988952807Q1283.2701629158346 560.5575632151825 1295.4323244922248 560.5575632151825L1295.4323244922248 560.5575632151825Q1307.77203587265 560.5575632151825 1315.021986204075 550.8810988952807Q1322.2719365354997 541.1750429413732 1322.2719365354997 524.5741362641106ZM1435.1936119016923 573.9921650538229L1421.9957431350986 573.9921650538229Q1418.7998466624706 566.742214722398 1416.4325159420055 560.794296287229Q1414.094776855546 554.8167862180542 1411.8754043051097 548.8392761488794Q1409.6264401206677 542.8913577137105 1407.3774759362257 536.3811982324311Q1405.1581033857894 529.9006303851575 1402.1693483512022 521.5853812295231L1402.1693483512022 521.5853812295231Q1399.1805933166147 529.9006303851575 1396.8428542301554 536.3811982324311Q1394.5051151436958 542.8913577137105 1392.2561509592538 548.8392761488794Q1390.0367784088178 554.8167862180542 1387.580672786335 560.794296287229Q1385.1245671638521 566.742214722398 1381.9286706912242 573.9921650538229L1381.9286706912242 573.9921650538229L1368.7308019246302 573.9921650538229Q1362.7532918554557 547.7739773246701 1358.817604532682 522.1180306416279Q1354.8819172099086 496.4324923245798 1352.9584609995306 475.12651584039247L1352.9584609995306 475.12651584039247L1369.559367676793 475.12651584039247Q1370.2103836249212 483.4417649960267 1370.9501744750664 491.43150617759693Q1371.689965325212 499.4212473591672 1372.7552641494212 508.15077939088286Q1373.8205629736306 516.8803114225984 1375.211369771904 527.1190167886107Q1376.6021765701773 537.3577221546229 1378.3184913425146 550.1413080451354L1378.3184913425146 550.1413080451354Q1381.7215292531835 541.6189174514604 1384.059268339643 535.2271245062043Q1386.3970074261024 528.835331560948 1388.3204636364803 523.064962929814Q1390.2439198468583 517.3241859326857 1392.049009521213 511.34667586351094Q1393.8540991955679 505.398757428342 1395.9846968439865 497.94166565887645L1395.9846968439865 497.94166565887645L1409.2121572445863 497.94166565887645Q1411.342754893005 505.398757428342 1413.0294780313366 511.34667586351094Q1414.7457928036738 517.3241859326857 1416.6692490140517 523.064962929814Q1418.563113590424 528.835331560948 1420.6937112388428 535.2271245062043Q1422.8243088872614 541.6189174514604 1426.0202053598896 549.9045749730889L1426.0202053598896 549.9045749730889Q1427.9436615702675 538.1862879067858 1429.4528349045643 528.18431561282Q1430.932416604855 518.1823433188544 1431.9977154290646 509.3344447511155Q1433.0630142532736 500.48654618337656 1433.9211716394425 492.17129702774236Q1434.779329025611 483.8560478721081 1435.4007533397332 475.12651584039247L1435.4007533397332 475.12651584039247L1451.3802357028735 475.12651584039247Q1450.3149368786644 485.77950408248614 1448.8353551783734 497.94166565887645Q1447.326181844077 510.07423560126085 1445.1955841956583 522.8578214917733Q1443.0649865472394 535.6414073822857 1440.5201060227394 548.7505012468621Q1437.975225498239 561.8595951114385 1435.1936119016923 573.9921650538229L1435.1936119016923 573.9921650538229ZM1510.6226869825168 472.788776753933L1510.6226869825168 472.788776753933Q1530.656223204454 472.788776753933 1541.5163528845883 485.2468546703815Q1552.3764825647227 497.7049325868299 1552.3764825647227 523.064962929814L1552.3764825647227 523.064962929814L1552.3764825647227 529.2496144370294L1481.6524772908233 529.2496144370294Q1482.7177761150326 544.578080852042 1491.772816120812 552.5678220336123Q1500.8278561265915 560.5575632151825 1517.2216213658137 560.5575632151825L1517.2216213658137 560.5575632151825Q1526.6021693456573 560.5575632151825 1533.2011037289542 559.0779815148917Q1539.800038112251 557.598399814601 1543.20307602292 555.8820850422636L1543.20307602292 555.8820850422636L1545.5704067433853 570.7962685811948Q1542.3745102707571 572.512583353532 1534.0592611151228 574.4064479299043Q1525.7440119594885 576.3299041402823 1515.2981651554358 576.3299041402823L1515.2981651554358 576.3299041402823Q1502.5145792649234 576.3299041402823 1492.8381149450215 572.3942168175088Q1483.132058991114 568.4585294947353 1476.7402660458579 561.6228620393919Q1470.3484731006015 554.8167862180542 1467.1525766279735 545.3474633361932Q1463.9566801553456 535.8485488203264 1463.9566801553456 524.7812777021513L1463.9566801553456 524.7812777021513Q1463.9566801553456 511.55381730155165 1468.0107340141421 501.75898644562665Q1472.064787872939 491.96415558970165 1478.6637222562358 485.57236264444543Q1485.2626566395327 479.1805696991892 1493.577905795167 475.98467322656114Q1501.893154950801 472.788776753933 1510.6226869825168 472.788776753933ZM1482.0667601669047 514.9864468462263L1534.4735439912042 514.9864468462263Q1534.4735439912042 502.41000239375455 1527.8746096079074 495.0416855263065Q1521.2756752246105 487.7029602928642 1510.4155455444761 487.7029602928642L1510.4155455444761 487.7029602928642Q1504.2308940372607 487.7029602928642 1499.229907890278 490.0406993793236Q1494.1993301092891 492.37843846578306 1490.5891507605795 496.2253508865391Q1486.9789714118701 500.07226330729515 1484.8483737634515 504.9548829182547Q1482.7177761150326 509.86709416322014 1482.0667601669047 514.9864468462263L1482.0667601669047 514.9864468462263ZM1602.2383858645223 573.9921650538229L1584.749730167085 573.9921650538229L1584.749730167085 480.4530099614393Q1606.4995811613599 472.9959181919737 1628.663715031716 472.9959181919737L1628.663715031716 472.9959181919737Q1635.4697908530534 472.9959181919737 1641.654442360269 473.52856760407843Q1647.8390938674843 474.0612170161831 1655.2961856369502 475.77753178852043L1655.2961856369502 475.77753178852043L1652.1002891643218 491.3131396415737Q1645.2646217089784 489.4192750652015 1640.056494123955 488.88662565309676Q1634.8187749049255 488.3539762409921 1628.663715031716 488.3539762409921L1628.663715031716 488.3539762409921Q1615.643396069157 488.3539762409921 1602.2383858645223 491.96415558970165L1602.2383858645223 491.96415558970165L1602.2383858645223 573.9921650538229ZM1708.768268285459 573.9921650538229L1691.2796125880218 573.9921650538229L1691.2796125880218 480.4530099614393Q1713.0294635822966 472.9959181919737 1735.1935974526525 472.9959181919737L1735.1935974526525 472.9959181919737Q1741.99967327399 472.9959181919737 1748.1843247812053 473.52856760407843Q1754.368976288421 474.0612170161831 1761.8260680578865 475.77753178852043L1761.8260680578865 475.77753178852043L1758.6301715852583 491.3131396415737Q1751.794504129915 489.4192750652015 1746.5863765448917 488.88662565309676Q1741.3486573258622 488.3539762409921 1735.1935974526525 488.3539762409921L1735.1935974526525 488.3539762409921Q1722.1732784900935 488.3539762409921 1708.768268285459 491.96415558970165L1708.768268285459 491.96415558970165L1708.768268285459 573.9921650538229ZM1829.354176859158 561.4157206013512L1829.354176859158 561.4157206013512Q1835.9531112424552 561.4157206013512 1841.1908304614844 561.0014377252697Q1846.3989580465081 560.5575632151825 1849.8019959571766 559.9361389010604L1849.8019959571766 559.9361389010604L1849.8019959571766 530.5220546992796Q1846.3989580465081 529.4567558750701 1841.6051133375659 528.835331560948Q1836.8112686286236 528.18431561282 1831.4847745075767 528.18431561282L1831.4847745075767 528.18431561282Q1826.5725632626113 528.18431561282 1821.8970850896926 528.9241064629655Q1817.2216069167735 529.6638973131109 1813.5818359340583 531.5873535234889Q1809.9716565853487 533.510809733867 1807.6339174988893 536.5883396704718Q1805.2665867784244 539.6954612410824 1805.2665867784244 544.3709394140013L1805.2665867784244 544.3709394140013Q1805.2665867784244 553.9586288318856 1811.7767462597035 557.6871747166184Q1818.286905740983 561.4157206013512 1829.354176859158 561.4157206013512ZM1827.6378620868209 472.788776753933L1827.6378620868209 472.788776753933Q1838.734724839002 472.788776753933 1846.2805915104846 475.5703903504797Q1853.8560498159736 478.3224123130206 1858.5315279888928 483.23462355798597Q1863.236597795817 488.1172431689456 1865.160054006195 495.1600520623297Q1867.0539185825673 502.20286095571385 1867.0539185825673 510.48851847734227L1867.0539185825673 510.48851847734227L1867.0539185825673 572.2758502814855Q1860.8988587093577 573.3411491056949 1850.778519879369 574.8503224399915Q1840.65818104938 576.3299041402823 1830.0051928072862 576.3299041402823L1830.0051928072862 576.3299041402823Q1821.8970850896926 576.3299041402823 1814.2328518821864 574.939097342009Q1806.5686186746802 573.5778821777415 1800.5911086055053 570.0564777310493Q1794.6135985363303 566.5350732843573 1791.0034191876211 560.3504217771418Q1787.3932398389115 554.1657702699263 1787.3932398389115 544.578080852042L1787.3932398389115 544.578080852042Q1787.3932398389115 536.0556902583671 1791.1217857236443 530.1965467252155Q1794.850331608377 524.337403192064 1800.7094751415284 520.7272238433545Q1806.5686186746802 517.117044494645 1814.1144853461633 515.5190962583309Q1821.689943651652 513.921148022017 1829.354176859158 513.921148022017L1829.354176859158 513.921148022017Q1839.800023663211 513.921148022017 1849.8019959571766 516.2588871084763L1849.8019959571766 516.2588871084763L1849.8019959571766 511.34667586351094Q1849.8019959571766 506.8783391286328 1848.8550636689906 502.73551036781856Q1847.8785397467987 498.56308997299857 1845.2152926862755 495.1600520623297Q1842.5520456257518 491.75701415166094 1837.9949339888562 489.71519140525965Q1833.4082307179551 487.7029602928642 1826.15828038653 487.7029602928642L1826.15828038653 487.7029602928642Q1816.9848738447272 487.7029602928642 1810.1787980233898 488.9754005551142Q1803.372722202052 490.2478408173643 1799.7329512193369 491.54987271362023L1799.7329512193369 491.54987271362023L1797.6023535709178 477.0499720507705Q1801.2421245536334 475.3336572784332 1809.6461486112848 474.0612170161831Q1818.0501726689367 472.788776753933 1827.6378620868209 472.788776753933ZM1896.675144222389 573.9921650538229L1896.675144222389 477.90812943693913Q1906.2628336402736 475.5703903504797 1915.7617481561401 474.2683584542238Q1925.2310710380011 472.9959181919737 1933.5463201936354 472.9959181919737L1933.5463201936354 472.9959181919737Q1953.3431233435263 472.9959181919737 1963.463462173515 483.23462355798597Q1973.583801003504 493.44373728999244 1973.583801003504 516.0517456704356L1973.583801003504 516.0517456704356L1973.583801003504 573.9921650538229L1956.124736940073 573.9921650538229L1956.124736940073 519.2476421430638Q1956.124736940073 509.65995272517944 1954.4084221677354 503.68244265600464Q1952.7216990294041 497.7049325868299 1949.614577458793 494.42026121218436Q1946.5370475221885 491.105998203533 1942.1574856893276 489.8335579412829Q1937.8075154904727 488.5611176790328 1932.6881628074666 488.5611176790328L1932.6881628074666 488.5611176790328Q1928.4269675106293 488.5611176790328 1923.633122801687 489.0937670911375Q1918.8392780927447 489.6264165032422 1914.3709413578667 490.48457388941085L1914.3709413578667 490.48457388941085L1914.3709413578667 573.9921650538229L1896.675144222389 573.9921650538229ZM2038.8037623523219 519.6619250191452L2038.8037623523219 519.6619250191452Q2044.5445393494501 523.9231203159826 2051.794489680875 530.4332797972621Q2059.0444400123 536.9138476445357 2066.1760238077013 544.3709394140013Q2073.307607603103 551.8280311834669 2079.6994005483593 559.6106309269965Q2086.0911934936157 567.393230670526 2089.9381059143716 573.9921650538229L2089.9381059143716 573.9921650538229L2069.0464123062657 573.9921650538229Q2064.992358447469 567.393230670526 2059.0444400123 560.4687883131651Q2053.066929943125 553.5443459558041 2046.349629023805 547.152553010548Q2039.6323281044847 540.7607600652918 2032.9446188191705 535.434265944245Q2026.2273178998503 530.1077718231982 2020.9008237788034 526.4680008404828L2020.9008237788034 526.4680008404828L2020.9008237788034 573.9921650538229L2003.2050266433257 573.9921650538229L2003.2050266433257 429.3186663993897L2020.9008237788034 426.32991136480234L2020.9008237788034 516.466028546517Q2032.6191108451067 506.2273231805048 2044.3373979114094 496.10698435051586Q2056.0556849777126 485.98664552052685 2065.436232957556 475.12651584039247L2065.436232957556 475.12651584039247L2086.0911934936157 475.12651584039247Q2076.9177869518126 485.98664552052685 2064.0454261592827 497.4977911487892Q2051.143473732747 509.00893677705153 2038.8037623523219 519.6619250191452ZM2169.3916432199867 549.2831506589667L2169.3916432199867 549.2831506589667Q2169.3916432199867 543.9566565379199 2165.041673021132 540.5536186272511Q2160.6621111882714 537.1209890825764 2154.151951706992 534.5761085580763Q2147.671383859718 532.0312280335761 2140.0071506522117 529.5751224110934Q2132.3133258107 527.1190167886107 2125.832757963426 523.5088374399012Q2119.3225984821465 519.8690664571859 2114.9726282832917 514.5425723361391Q2110.593066450431 509.21607821509224 2110.593066450431 500.69368762141727L2110.593066450431 500.69368762141727Q2110.593066450431 488.7682591170735 2120.2991224043385 480.77851793550326Q2129.97558672424 472.788776753933 2150.6601388943054 472.788776753933L2150.6601388943054 472.788776753933Q2158.738654977893 472.788776753933 2167.379412107591 473.9724421141657Q2175.990577603284 475.12651584039247 2182.175229110499 477.0499720507705L2182.175229110499 477.0499720507705L2178.9793326378713 492.8223129758703Q2177.2926094995396 491.96415558970165 2174.303854464952 491.0172233015155Q2171.315099430365 490.0406993793236 2167.4681870096088 489.30090852917823Q2163.6508662228584 488.5611176790328 2159.271304389998 488.1172431689456Q2154.921334191143 487.7029602928642 2150.867280332346 487.7029602928642L2150.867280332346 487.7029602928642Q2127.8449890758216 487.7029602928642 2127.8449890758216 500.27940474533585L2127.8449890758216 500.27940474533585Q2127.8449890758216 504.747741480214 2132.2245509086824 507.82527141681885Q2136.5745211075373 510.9323929874295 2143.20304712484 513.4772735119298Q2149.8019815081366 516.0517456704356 2157.466214715643 518.714992730959Q2165.1304479231494 521.3782397914824 2171.729382306446 525.1955605782327Q2178.357908323749 529.0424729989887 2182.707878522604 534.457742022053Q2187.0874403554644 539.9026026791232 2187.0874403554644 548.2178518347573L2187.0874403554644 548.2178518347573Q2187.0874403554644 561.6228620393919 2176.641593551412 568.99117890684Q2166.1957467473585 576.3299041402823 2143.6173300009214 576.3299041402823L2143.6173300009214 576.3299041402823Q2133.378624634909 576.3299041402823 2124.856234041234 574.6431810019508Q2116.333843447559 572.9268662296134 2108.669610240053 569.5238283189447L2108.669610240053 569.5238283189447L2112.0726481507218 553.5443459558041Q2119.5297399201872 556.947383866473 2127.756214173804 559.196348050915Q2135.953096793415 561.4157206013512 2145.3336447732586 561.4157206013512L2145.3336447732586 561.4157206013512Q2169.3916432199867 561.4157206013512 2169.3916432199867 549.2831506589667Z " fill="#99ddff" transform="matrix(0.4000754797258709,0,0,0.40007547972587093,0,99.43018007736784)"/></g></svg>